HIERARCHY
ROOT Hips
{
	OFFSET	0.00	0.00	0.00
	CHANNELS 6 Xposition Yposition Zposition Zrotation Xrotation Yrotation
	JOINT LeftHip
	{
		OFFSET	 3.430000	 0.000000	 0.000000
		CHANNELS 3 Zrotation Xrotation Yrotation
		JOINT LeftKnee
		{
			OFFSET	 0.000000	-18.469999	 0.000000
			CHANNELS 3 Zrotation Xrotation Yrotation
			JOINT LeftAnkle
			{
				OFFSET	 0.000000	-17.950001	 0.000000
				CHANNELS 3 Zrotation Xrotation Yrotation
				End Site 
				{
					OFFSET	 0.000000	-3.119996	 0.000000
				}
			}
		}
	}
	JOINT RightHip
	{
		OFFSET	-3.430000	 0.000000	 0.000000
		CHANNELS 3 Zrotation Xrotation Yrotation
		JOINT RightKnee
		{
			OFFSET	 0.000000	-18.809999	 0.000000
			CHANNELS 3 Zrotation Xrotation Yrotation
			JOINT RightAnkle
			{
				OFFSET	 0.000000	-17.570000	 0.000000
				CHANNELS 3 Zrotation Xrotation Yrotation
				End Site 
				{
					OFFSET	 0.000000	-3.250000	 0.000000
				}
			}
		}
	}
	JOINT Chest
	{
		OFFSET	 0.000000	 4.570000	 0.000000
		CHANNELS 3 Zrotation Xrotation Yrotation
		JOINT LeftCollar
		{
			OFFSET	 1.060000	 15.330000	 1.760000
			CHANNELS 3 Zrotation Xrotation Yrotation
			JOINT LeftShoulder
			{
				OFFSET	 5.810000	 0.000000	 0.000000
				CHANNELS 3 Zrotation Xrotation Yrotation
				JOINT LeftElbow
				{
					OFFSET	 0.000000	-12.080000	 0.000000
					CHANNELS 3 Zrotation Xrotation Yrotation
					JOINT LeftWrist
					{
						OFFSET	 0.000000	-9.820000	 0.000000
						CHANNELS 3 Zrotation Xrotation Yrotation
						End Site 
						{
							OFFSET	 0.000000	-7.369996	 0.000000
						}
					}
				}
			}
		}
		JOINT RightCollar
		{
			OFFSET	-1.060000	 15.330000	 1.760000
			CHANNELS 3 Zrotation Xrotation Yrotation
			JOINT RightShoulder
			{
				OFFSET	-6.060000	 0.000000	 0.000000
				CHANNELS 3 Zrotation Xrotation Yrotation
				JOINT RightElbow
				{
					OFFSET	 0.000000	-11.900000	 0.000000
					CHANNELS 3 Zrotation Xrotation Yrotation
					JOINT RightWrist
					{
						OFFSET	 0.000000	-9.520000	 0.000000
						CHANNELS 3 Zrotation Xrotation Yrotation
						End Site 
						{
							OFFSET	 0.000000	-7.140012	 0.000000
						}
					}
				}
			}
		}
		JOINT Neck
		{
			OFFSET	 0.000000	 17.620001	 0.000000
			CHANNELS 3 Zrotation Xrotation Yrotation
			JOINT Head
			{
				OFFSET	 0.000000	 5.190000	 0.000000
				CHANNELS 3 Zrotation Xrotation Yrotation
				End Site 
				{
					OFFSET	 0.000000	 4.140008	 0.000000
				}
			}
		}
	}
}

MOTION
Frames: 18
Frame Time: 0.033333
15.4165 0.1959 -36.7017 13.9365 15.1358 121.903 20.5872 13.9203 18.6934 1.00253 22.6535 1.26988 -6.34552 17.925 2.96157 -19.0891 9.00693 -33.0241 0.384904 14.1537 1.09505 0.121226 -4.54178 -11.7398 -1.05846 15.8825 -8.16989 0 0 0 17.1288 -9.48791 -1.03476 -9.79557 -6.87393 -4.968 -22.5272 0.998392 -39.9362 0 0 0 -37.3668 0.60717 -17.3759 31.911 -45.4161 23.7644 0.509786 -31.8523 28.0486 0 0 0 -9.80933 1.47363 -37.313 
14.8263 0.1005 -36.7545 13.3776 15.4799 126.077 21.2596 13.2868 19.6718 1.1882 22.5351 1.72375 -7.02975 17.7357 4.39118 -19.682 9.65617 -33.9371 0.539862 14.0928 0.525002 -0.246855 -4.11437 -13.8374 -2.46031 15.7545 -9.27648 0 0 0 18.9717 -7.71598 -0.752413 -10.1876 -7.38452 -5.57287 -22.3879 0.940595 -39.1777 0 0 0 -45.7261 2.40129 -24.5965 40.5133 -51.07 30.9213 -0.0237648 -31.1687 25.8985 0 0 0 -9.22494 3.77585 -38.0338 
14.0127 0.0025 -36.88 12.7204 15.6826 130.331 21.4067 12.1668 20.9364 1.36478 22.4735 2.16553 -7.7239 16.2493 5.31614 -20.3229 10.1525 -34.6853 0.627504 14.0345 0.138535 -0.688617 -4.06839 -14.8979 -3.34492 16.2914 -10.0788 0 0 0 21.0081 -4.9465 -0.062031 -10.4739 -7.75096 -6.34874 -22.1693 0.814287 -37.6418 0 0 0 -58.7867 11.1693 -33.7346 51.3104 -55.5321 40.0526 -1.77495 -30.2784 24.6186 0 0 0 -8.48939 6.60837 -38.6003 
13.0685 -0.0879 -37.0382 12.0358 15.7556 134.263 21.1347 10.6481 21.7601 1.44955 22.5391 2.28729 -8.79644 13.9716 6.7205 -20.8827 10.3069 -34.8186 0.53241 13.8226 0.0937139 -0.908929 -4.20492 -15.4849 -3.81876 17.4914 -10.411 0 0 0 22.92 -1.93008 1.20749 -10.4038 -7.84136 -6.91547 -21.5899 0.317987 -35.788 0 0 0 -69.6319 20.8081 -43.6977 63.1289 -59.6467 50.0994 -4.89991 -29.6597 23.9502 0 0 0 -7.78627 9.2774 -38.8131 
12.0138 -0.1808 -37.2592 11.3367 15.696 137.835 20.4006 9.17978 22.3192 1.37391 22.7442 2.48483 -9.79947 10.9469 7.72174 -21.3438 10.299 -34.074 0.391261 13.5897 -0.126234 -0.788582 -4.86825 -14.5396 -3.97907 19.2871 -10.0022 0 0 0 24.24 0.938749 2.9562 -9.9302 -7.30941 -7.06369 -20.684 -0.346208 -34.7781 0 0 0 -75.6653 28.1577 -55.9144 73.8387 -61.2275 58.8204 -9.68005 -30.0971 23.6183 0 0 0 -7.32662 11.3279 -38.6016 
10.8937 -0.2536 -37.5179 10.6801 15.6172 140.97 19.0424 7.74495 22.4672 1.26586 22.8468 2.49755 -10.4828 7.49759 8.43857 -21.861 10.0284 -32.7402 0.0624987 13.4138 0.350461 -0.397057 -6.0848 -12.7119 -4.15208 21.157 -8.86702 0 0 0 24.8027 3.72495 4.2509 -8.97032 -6.21129 -6.95 -20.1658 0.0187291 -35.1285 0 0 0 -76.1531 30.0358 -68.9315 79.8334 -62.4028 64.5732 -9.02814 -25.3493 25.6121 0 0 0 -7.08042 12.9442 -37.727 
9.7712 -0.3114 -37.8268 10.0607 15.5168 143.823 17.1181 6.4618 22.3023 1.00656 22.8575 2.18821 -10.1462 3.96151 8.82355 -22.3701 9.62549 -30.7969 -0.309207 13.3 0.581189 0.275971 -7.39701 -9.90636 -4.48205 22.8677 -7.23894 0 0 0 24.5442 6.2328 4.21838 -7.92504 -4.70621 -6.59333 -19.8106 0.485346 -35.6401 0 0 0 -75.3223 26.6558 -73.9738 72.5037 -63.7321 58.4358 -7.59303 -21.352 28.1076 0 0 0 -7.16383 13.9375 -36.3964 
8.7768 -0.3491 -38.1407 9.65864 15.5216 146.405 15.6704 5.6756 22.4525 0.846466 22.7975 1.71924 -8.95728 1.2279 7.60736 -22.1972 9.58223 -28.4532 -0.770453 13.1707 0.901618 1.44752 -8.48659 -6.18185 -4.75605 24.2548 -5.25688 0 0 0 23.7316 7.50661 3.18573 -6.96896 -3.02749 -5.86722 -19.8063 1.17628 -36.5593 0 0 0 -72.2603 27.4438 -74.0395 55.9244 -61.4266 44.4792 -5.02723 -17.2195 31.0197 0 0 0 -7.55828 13.8313 -35.2967 
7.8099 -0.3591 -38.4696 9.25661 15.7109 149.458 14.2348 5.11156 22.2209 0.72395 22.5222 0.994453 -7.70362 -0.999201 6.31526 -21.4279 9.99379 -26.0253 -1.15059 13.186 1.40074 3.37826 -9.13597 -2.73289 -4.77052 25.828 -3.10281 0 0 0 22.5827 7.38536 2.18998 -6.12944 -1.42418 -5.21752 -19.9159 1.96265 -37.6535 0 0 0 -70.901 35.262 -64.7146 38.3906 -56.6337 29.5261 -2.97468 -14.8434 32.7252 0 0 0 -8.60053 12.6573 -34.5592 
7.0465 -0.3541 -38.7961 8.79213 16.0831 152.648 12.5591 4.91715 20.9004 0.463959 21.8747 0.304741 -6.51938 -2.22411 5.63576 -20.0535 10.3881 -23.1489 -1.41103 13.7958 1.5698 3.45075 -9.5446 -2.14987 -4.7951 26.9016 -1.15512 0 0 0 21.1174 5.83153 1.04621 -5.48327 -0.0728642 -4.6032 -20.0108 2.71813 -39.6909 0 0 0 -69.9954 35.6179 -46.3635 26.2225 -50.0351 18.7127 0.487052 -12.1168 34.2562 0 0 0 -9.37074 10.4611 -34.195 
6.3986 -0.344 -39.1427 8.20294 16.5461 156.163 10.8325 5.06224 19.3745 0.27412 20.8371 -0.204152 -5.34391 -2.87999 4.77535 -18.7712 10.8782 -20.9488 -1.6753 15.1653 1.25284 2.96806 -10.0459 -1.52306 -4.49036 27.1635 0.386082 0 0 0 19.418 3.93359 -0.921671 -5.15353 0.84191 -4.12845 -20.2301 3.62886 -42.1861 0 0 0 -63.7533 25.423 -28.4227 19.1506 -41.3944 12.5284 5.60015 -9.56011 36.4761 0 0 0 -9.93343 8.52779 -34.6353 
5.8512 -0.344 -39.4767 7.36019 17.1417 160.323 8.79724 5.3659 17.1856 0.0471411 19.444 -0.558557 -3.94427 -2.96575 3.89492 -17.6678 11.4729 -19.8704 -2.06538 17.1199 1.37347 2.52611 -10.5474 -0.563725 -3.87088 26.2502 1.38885 0 0 0 17.7754 2.30313 -3.64785 -5.17387 1.02622 -3.89863 -20.6007 4.67393 -43.9912 0 0 0 -49.858 8.24932 -13.7555 13.5772 -34.3357 7.85604 11.9405 -6.46767 38.4103 0 0 0 -10.2137 7.60968 -35.5039 
5.3967 -0.3616 -39.7805 6.2806 17.836 164.958 6.87815 6.01783 14.9801 -0.0693542 18.015 -0.863748 -2.61208 -2.72165 2.52805 -16.3528 12.1987 -19.3828 -2.29826 19.4306 1.5008 1.77557 -10.6978 0.0925078 -3.0366 25.242 1.90285 0 0 0 16.3486 0.460206 -5.70868 -5.61589 0.33042 -3.67366 -20.4386 4.57163 -44.096 0 0 0 -29.917 -10.321 -0.477425 10.5639 -28.3885 5.05716 14.8285 -7.51702 37.8481 0 0 0 -10.2121 7.0498 -36.5473 
5.0275 -0.3867 -40.0316 5.02733 18.6481 169.818 5.30446 6.99127 12.8602 -0.158474 16.6873 -1.12655 -1.75485 -2.37463 0.865143 -14.7058 12.572 -18.5638 -2.51846 22.2691 2.15889 1.10387 -10.9727 -0.00906574 -2.09709 24.5362 2.66533 0 0 0 15.295 -1.73746 -6.0589 -6.18963 -0.832653 -4.01412 -19.6623 3.97413 -43.8962 0 0 0 -17.4253 -17.77 11.9687 11.0682 -25.2699 5.76918 16.8062 -8.3112 37.1533 0 0 0 -9.80676 6.83443 -37.0147 
4.7061 -0.3867 -40.2576 3.53533 19.3701 175.111 3.78621 7.86231 10.2103 -0.359799 15.4229 -1.27077 -1.64426 -1.85747 -0.668251 -13.201 12.0401 -17.8749 -2.80383 25.3823 2.83728 0.41289 -11.7893 -0.488505 -1.09393 24.0712 2.72985 0 0 0 14.3065 -4.01019 -5.47815 -6.49753 -1.96243 -4.11722 -18.4157 2.69277 -43.2323 0 0 0 -6.82603 -22.7038 21.8939 11.6138 -25.2984 5.90639 17.2958 -9.70286 36.999 0 0 0 -9.15116 6.85566 -36.2944 
4.4323 -0.4018 -40.4736 2.03491 19.7316 -179.819 2.50538 8.66248 7.7204 -0.585278 14.2645 -1.21827 -1.8769 -1.4388 -2.34464 -11.7533 10.5543 -16.6541 -3.23886 28.5165 3.4453 -0.508335 -12.8759 -0.469096 -0.435341 23.3454 2.71621 0 0 0 13.6437 -5.66212 -4.94368 -6.71224 -2.87138 -3.9769 -16.8113 1.05119 -42.0498 0 0 0 -4.01136 -25.4194 22.3554 13.3293 -25.8944 7.30593 17.3513 -10.3025 38.9589 0 0 0 -7.79395 7.51592 -33.9496 
4.2139 -0.3792 -40.6745 0.507381 19.6892 -174.682 1.39614 9.04508 5.07608 -0.796759 13.1956 -1.16178 -2.70135 -0.923755 -4.16404 -10.6371 8.11871 -15.5219 -4.19094 30.9031 5.01278 0.461499 -13.6569 1.09259 0.111082 22.428 2.57142 0 0 0 13.0453 -7.01976 -4.78999 -6.82351 -3.54763 -3.93726 -15.0313 -0.788629 -40.8675 0 0 0 -2.43594 -26.8779 23.2912 13.8815 -25.7571 7.98943 17.0911 -11.6032 40.3389 0 0 0 -6.99332 8.30928 -29.7588 
4.0305 -0.3491 -40.9106 -1.25696 19.2145 -168.872 0.129772 9.21523 2.09738 -0.971387 12.2917 -1.22212 -3.60011 -0.504093 -6.13864 -9.31194 5.03887 -11.8868 -4.57528 32.5919 5.28069 1.65738 -14.1664 2.875 0.225307 21.7024 2.33941 0 0 0 12.6362 -8.36574 -4.61895 -6.86453 -4.12831 -3.888 -13.438 -2.66294 -39.7669 0 0 0 -2.90404 -26.3106 23.213 13.693 -25.2097 7.78847 15.5246 -13.1313 39.934 0 0 0 -6.66531 8.80677 -23.5241 
